<svg width="237" height="61" viewBox="0 0 237 61" fill="none" xmlns="http://www.w3.org/2000/svg">
<mask id="mask0_945_3114" style="mask-type:luminance" maskUnits="userSpaceOnUse" x="0" y="0" width="237" height="61">
<path d="M236.614 0.296875H0.652344V60.2968H236.614V0.296875Z" fill="white"/>
</mask>
<g mask="url(#mask0_945_3114)">
<path d="M219.515 7.07574H192.85C187.468 7.07574 183.105 11.4384 183.105 16.82V42.3315C183.105 47.7129 187.468 52.0756 192.85 52.0756H219.515C224.897 52.0756 229.259 47.7129 229.259 42.3315V16.82C229.259 11.4384 224.897 7.07574 219.515 7.07574Z" fill="#00CCFF"/>
<path d="M175.317 12.0979L175.15 26.4084H172.049L171.166 12.721C171.166 12.7036 171.178 12.6892 171.195 12.6863L175.279 12.0632C175.279 12.0632 175.294 12.0632 175.306 12.0719C175.312 12.0806 175.317 12.0863 175.317 12.0979Z" fill="#637381"/>
<path d="M169.591 22.7767C169.614 25.2488 169.129 27.0806 168.105 28.3758C166.85 29.9681 163.865 31.7594 163.239 31.8402C163.026 31.6584 162.613 30.3546 162.316 27.4036C162.304 27.2998 162.365 27.2017 162.46 27.1671C163.216 26.896 165.728 25.9296 166.277 24.8334C166.545 24.2998 166.155 22.6267 165.123 19.8575C165.085 19.7536 165.126 19.6412 165.218 19.5892L168.844 17.6681C169.323 19.321 169.574 21.0373 169.591 22.7738V22.7767Z" fill="#637381"/>
<path d="M161.415 22.9584C161.438 25.4305 160.954 27.2623 159.929 28.5575C158.675 30.1498 155.689 31.9411 155.063 32.0219C154.85 31.8402 154.437 30.5363 154.14 27.5853C154.128 27.4815 154.189 27.3835 154.284 27.3488C155.04 27.0777 157.553 26.1113 158.101 25.0151C158.369 24.4815 157.979 22.8085 156.947 20.0392C156.909 19.9353 156.95 19.8229 157.042 19.7709L160.668 17.8498C161.147 19.5027 161.398 21.219 161.415 22.9555V22.9584Z" fill="#637381"/>
<path d="M160.014 13.3469V16.2315C160.014 16.2661 159.988 16.2921 159.956 16.2921H157.204C157.173 16.2921 157.146 16.2661 157.146 16.2315V13.3469C157.146 13.3123 157.173 13.2863 157.204 13.2863H159.956C159.988 13.2863 160.014 13.3123 160.014 13.3469Z" fill="#637381"/>
<path d="M138.795 28.0209V30.9055C138.795 30.9401 138.769 30.9661 138.737 30.9661H135.985C135.954 30.9661 135.928 30.9401 135.928 30.9055V28.0209C135.928 27.9863 135.954 27.9603 135.985 27.9603H138.737C138.769 27.9603 138.795 27.9863 138.795 28.0209Z" fill="#637381"/>
<path d="M154.971 16.6152V20.7171C154.971 23.2152 153.209 25.3844 150.869 25.7623C149.808 25.9325 148.749 25.9988 147.722 25.9527C143.586 25.7767 142.755 25.1998 142.184 22.1104C141.667 19.3325 141.705 14.0162 141.806 12.2681C141.814 12.1065 141.939 11.9738 142.092 11.9623L145.244 11.6969C145.244 11.6969 145.261 11.6969 145.27 11.6969C145.348 11.6969 145.423 11.7258 145.481 11.7834C145.547 11.8469 145.582 11.9334 145.582 12.0258V19.9036C145.582 20.4834 146.014 20.9681 146.565 21.0056C147.443 21.0633 149.182 21.1094 150.947 20.7662C151.371 20.6825 151.662 20.2671 151.613 19.8142C151.539 19.145 151.394 17.9017 151.247 17.1114C151.233 17.0421 151.247 16.97 151.285 16.9123C151.322 16.8546 151.38 16.8171 151.443 16.8027C152.144 16.6614 153.275 16.4681 154.683 16.3412C154.758 16.3325 154.83 16.3584 154.885 16.4133C154.94 16.4652 154.971 16.5373 154.971 16.6152Z" fill="#637381"/>
<path d="M152.448 28.0988V30.9027C152.448 30.9315 152.425 30.9575 152.399 30.9575L146.659 31.2142C146.604 31.2171 146.549 31.1969 146.509 31.1565C146.468 31.1161 146.445 31.0613 146.445 31.0036V28.1767C146.445 28.119 146.468 28.0642 146.506 28.0267C146.543 27.9863 146.595 27.9661 146.647 27.9661L152.39 28.044C152.419 28.044 152.442 28.07 152.442 28.0988H152.448Z" fill="#637381"/>
<path d="M140.186 15.9633V20.4431C140.186 22.8517 138.466 24.8883 136.185 25.1825C135.608 25.2575 135.071 25.3238 134.659 25.3729C134.356 25.4104 134.113 25.6555 134.07 25.97C133.958 26.7777 133.513 28.7507 131.832 29.6305C129.631 30.7844 127.084 30.5969 124.871 30.3287C122.578 30.0517 121.314 28.3181 121.314 25.4507C121.314 23.495 121.375 21.8652 121.427 20.8411C121.436 20.6537 121.513 20.4835 121.649 20.3594C121.77 20.2469 121.923 20.1863 122.085 20.1863C122.099 20.1863 122.116 20.1863 122.131 20.1863L124.366 20.3507C124.494 20.3594 124.589 20.4748 124.583 20.6075C124.292 25.5142 124.488 25.719 124.62 25.8546C124.687 25.9267 124.895 26.1431 127.551 26.2181C128.359 26.2411 130.355 26.27 131.402 26.0335C131.702 25.9642 132.062 25.8488 132.166 25.5604V25.5517C132.259 25.3037 132.36 25.0209 132.19 24.7527C131.93 24.3373 131.252 24.1757 127.513 23.9681C127.39 23.9623 127.283 23.8671 127.254 23.7373C127.159 23.2844 127.072 22.4652 127.222 21.1411C127.248 20.919 127.427 20.7517 127.644 20.7488L135.221 20.6767C135.643 20.6738 136.035 20.495 136.326 20.1805C136.62 19.8633 136.776 19.4479 136.767 19.0065L136.724 16.8892C136.718 16.5805 136.935 16.3238 137.226 16.2892L140.186 15.9604V15.9633Z" fill="#637381"/>
<path d="M116.493 23.3652L116.684 22.7652C116.684 22.7652 117.119 21.3517 117.105 19.1738C117.105 19.0065 117.012 18.8565 116.874 18.7902C116.459 18.5911 115.414 18.2594 113.095 18.2594C112.132 18.2594 111.448 18.496 111.007 18.9777C110.237 19.8258 110.309 21.3834 110.369 22.6354C110.384 22.9584 110.398 23.2642 110.398 23.5469V23.9623L110.003 24.0027C109.807 24.0229 108.061 24.1873 107.245 23.994C106.761 23.8786 106.123 23.0306 104.557 20.8152C103.787 19.7277 102.639 18.1036 102.235 17.8238C102.015 17.919 101.45 18.3863 100.723 19.246C100.397 19.6325 100.016 20.0536 99.7826 20.5094C99.5261 21.0113 99.6153 20.8729 99.7365 21.4008C100.025 22.6383 99.0212 22.3902 98.0925 22.4046C96.8058 22.4277 97.694 23.9277 96.445 24.0863C95.7241 24.1786 94.9395 24.0863 94.2098 24.0863C93.846 24.0863 93.5519 23.7777 93.5519 23.3969V14.6969C93.5519 14.6017 93.5029 14.5411 93.4741 14.5152C93.445 14.4892 93.3816 14.446 93.2895 14.4575C92.5192 14.57 91.0856 14.8181 90.1395 15.2363C89.9232 15.3315 89.7846 15.5536 89.7846 15.7988V22.8488C89.7846 23.3681 89.3979 23.7892 88.9019 23.8065C88.6108 23.8181 88.3192 23.8296 88.0277 23.8383C87.7653 23.8469 87.494 23.9219 87.2287 23.8671C86.894 23.7979 86.7588 23.5498 86.5682 23.2786C86.0405 22.5373 85.5123 21.796 84.9846 21.0546C84.4365 20.2873 83.8915 19.52 83.3434 18.7527C83.147 18.4786 82.9509 18.2046 82.7548 17.9306C82.6539 17.7892 82.4865 17.6421 82.5296 17.4546C82.5786 17.2469 82.8761 17.1056 83.0519 17.0796C83.0578 17.0796 83.5598 17.0075 83.5623 17.0075L85.6568 16.7161C85.8296 16.6931 85.9623 16.5344 85.9623 16.3527V13.1565C85.9623 13.021 85.8787 12.9488 85.844 12.9229C85.8098 12.8969 85.7113 12.845 85.5934 12.8969L79.4865 15.2854C79.3192 15.3488 79.1895 15.4902 79.1346 15.669C78.9182 16.3527 78.4019 18.0834 78.5751 18.5883C78.5836 18.6229 78.595 18.6546 78.6068 18.6806C78.7712 18.9979 79.4202 19.5892 79.994 20.1142C81.2979 21.3027 82.4232 22.3296 82.0049 23.2036C81.7999 23.6334 81.2548 23.9248 80.3346 24.0921C79.7578 24.196 79.0395 24.2508 78.3643 24.2392C77.2306 24.219 77.0608 24.0488 76.9712 23.9565C76.795 23.7806 76.7172 23.4633 76.4979 22.4911C76.3598 21.8738 76.2296 21.2508 76.0277 20.6536C75.9385 20.3911 75.8836 20.1431 75.5751 20.244C75.347 20.319 75.1598 20.5123 74.9578 20.6392L74.0287 21.219C73.6336 21.4671 73.2355 21.7152 72.8405 21.9633C72.5608 22.1392 72.445 22.5084 72.5751 22.82C72.7796 23.3248 73.0365 23.9161 73.3163 24.5363C73.9019 25.8315 74.0692 26.5094 74.1182 26.7979C74.1588 27.046 74.0692 27.2969 73.8761 27.4527C72.9153 28.2488 71.0172 29.0161 69.9702 29.4027C69.8143 29.4604 69.7251 29.6306 69.7623 29.8008L70.6479 33.7959C75.194 33.02 76.3192 28.7623 76.3306 28.719L76.4172 28.37L76.7608 28.3786C76.7925 28.3786 80.0261 28.4623 81.6875 28.0267C82.5271 27.8075 82.7489 27.3719 82.9856 26.9075C83.1787 26.5296 83.3979 26.1027 83.9287 25.9354C84.7479 25.6786 85.2816 26.3161 85.7979 26.9306C86.0663 27.2536 86.3722 27.6171 86.7529 27.9229C87.497 28.5229 88.6336 28.6556 89.5163 28.3065C90.2287 28.0267 90.3934 26.9334 91.2123 26.8671C92.1905 26.7892 92.6346 27.7729 93.3613 28.246C94.2356 28.8171 95.6232 28.771 96.3672 27.9777C96.6296 27.695 96.6905 27.4008 97.1548 27.5046C97.5241 27.5854 97.8182 27.8854 98.0375 28.2084C98.2568 28.5315 98.4212 28.895 98.6578 29.2065C99.1192 29.8065 99.8202 30.1613 100.539 30.3229C101.257 30.4844 101.998 30.4758 102.734 30.4671C103.198 30.4613 103.686 30.4469 104.081 30.196C104.508 29.9248 104.753 29.4084 104.834 28.8921C104.903 28.4536 104.562 27.3171 105.102 27.2594L105.65 27.2017C105.849 27.1815 106.045 27.2623 106.178 27.4181C106.438 27.7296 107.412 28.7392 109.097 28.7392C110.914 28.7392 116.415 28.0671 118.057 27.8623C118.106 27.8565 118.14 27.8133 118.14 27.7642V23.3623H116.493V23.3652ZM103.163 25.3008C103.077 25.5113 102.878 25.644 102.659 25.644H100.411C100.207 25.644 100.019 25.546 99.895 25.3729C99.7712 25.2027 99.7336 24.9863 99.7885 24.7815C99.8925 24.3921 100.111 23.6536 100.411 23.1056C100.524 22.8979 100.729 22.7565 100.96 22.7277C101.188 22.7017 101.415 22.7911 101.568 22.9671L103.062 24.6748C103.21 24.8421 103.247 25.0873 103.161 25.295L103.163 25.3008ZM115.391 23.1258C115.357 23.371 115.169 23.5498 114.933 23.5642L112.521 23.6969C112.521 23.6969 112.501 23.6969 112.489 23.6969C112.334 23.6969 112.181 23.6334 112.068 23.521C111.947 23.3998 111.878 23.2325 111.878 23.0565V22.2604C111.878 22.0527 111.976 21.8536 112.138 21.7354C112.299 21.6171 112.51 21.5883 112.697 21.6604L115.071 22.5633C115.293 22.6469 115.423 22.8777 115.389 23.1229L115.391 23.1258Z" fill="#637381"/>
<path d="M66.1052 28.0613C62.5226 28.4277 61.9399 28.1046 61.184 26.6738C60.5092 25.3988 60.6216 22.1449 60.6735 21.1786C60.679 21.1007 60.7399 21.0431 60.8117 21.0431H63.5755C63.6102 23.3681 63.9706 23.5527 64.1265 23.6305C64.2389 23.6882 64.533 23.8382 66.8379 23.6911C67.0399 23.6796 67.2245 23.5699 67.3399 23.3969C67.4552 23.2238 67.4899 23.0075 67.435 22.8055C67.3255 22.4075 67.1147 21.8017 66.7428 21.1901C66.3647 20.5671 66.0127 19.5805 65.8369 19.0498C65.7562 18.8017 65.8226 18.5277 66.0127 18.3517L68.0003 16.5055C68.084 16.4277 68.1938 16.3959 68.3033 16.4132C68.4127 16.4334 68.5052 16.4998 68.5602 16.6007C69.2379 17.8555 70.383 20.319 70.4438 22.7334C70.53 26.2382 69.3157 27.7325 66.1082 28.0584L66.1052 28.0613Z" fill="#637381"/>
<path d="M30.2326 15.3777V18.2623C30.2326 18.2969 30.2066 18.3229 30.1749 18.3229H27.423C27.3912 18.3229 27.3652 18.2969 27.3652 18.2623V15.3777C27.3652 15.3431 27.3912 15.3171 27.423 15.3171H30.1749C30.2066 15.3171 30.2326 15.3431 30.2326 15.3777Z" fill="#637381"/>
<path d="M14.2286 19.7536V22.6383C14.2286 22.6729 14.2027 22.6988 14.1709 22.6988H11.419C11.3873 22.6988 11.3613 22.6729 11.3613 22.6383V19.7536C11.3613 19.719 11.3873 19.6931 11.419 19.6931H14.1709C14.2027 19.6931 14.2286 19.719 14.2286 19.7536Z" fill="#637381"/>
<path d="M55.7985 18.3719C55.7985 18.7094 56.0554 19.0959 56.4129 19.6296C56.8257 20.2469 57.3361 21.0142 57.596 21.9085C58.1465 23.8238 58.3257 26.4113 56.0351 27.8507C53.5544 29.4085 50.0034 28.9757 48.9737 28.2257C47.8975 27.4469 47.3584 26.1344 47.2777 24.1007C47.2054 22.2604 46.946 17.5007 46.8678 16.0844C46.8593 15.9488 46.94 15.8219 47.0638 15.7787C47.7129 15.5537 49.0024 15.17 50.3613 15.1325H50.3668C50.4217 15.1325 50.4737 15.1555 50.5138 15.1959C50.5544 15.2392 50.5777 15.2969 50.5777 15.3575L50.4995 23.8152C50.4995 24.0027 50.5658 24.1815 50.693 24.3142C50.8198 24.4469 50.99 24.5219 51.1688 24.5219H55.0658C55.3747 24.5219 55.6257 24.2681 55.64 23.9479L55.6574 23.5238C55.6658 23.3392 55.591 23.1633 55.4584 23.0421C55.0574 22.6815 53.0178 20.8267 52.2623 19.8604C52.1322 19.6959 52.0629 19.4883 52.0629 19.2777V16.7594C52.0629 16.5805 52.1584 16.419 52.3113 16.3354C53.4015 15.7498 56.2485 14.2671 59.0985 13.1796C59.1881 13.145 59.2574 13.1854 59.2831 13.2055C59.3093 13.2257 59.3668 13.2777 59.3668 13.3757V17.3825C58.9688 17.4055 58.2074 17.4546 57.5148 17.5498C56.2658 17.72 55.8015 17.9421 55.8015 18.3719H55.7985Z" fill="#637381"/>
<path d="M44.9271 24.5767C44.947 26.8642 44.4999 28.5604 43.5539 29.7575C42.3914 31.2315 39.6308 32.8902 39.0481 32.9652C38.8491 32.7979 38.4712 31.5921 38.1943 28.8604C38.1856 28.7652 38.2404 28.6758 38.3298 28.6441C39.0308 28.3931 41.3558 27.4989 41.8606 26.4835C42.1058 25.9902 41.7481 24.4383 40.7904 21.8796C40.7558 21.7844 40.7933 21.6777 40.8798 21.6315L44.2346 19.8546C44.6791 21.3835 44.9098 22.9729 44.9271 24.5796V24.5767Z" fill="#637381"/>
<path d="M36.4745 17.896C36.4283 18.0431 36.4687 18.2017 36.5755 18.3085C37.8274 19.5517 38.736 20.6767 38.837 21.1123C39.2466 22.895 39.4543 26.169 36.2553 28.0729C33.186 29.9018 30.1139 28.0787 29.2457 27.4787C29.1043 27.3806 28.9457 27.3316 28.7841 27.3316C28.637 27.3316 28.487 27.3748 28.3514 27.4556C26.8687 28.37 25.5129 28.4594 24.636 28.3729C23.6235 28.2719 22.6572 27.8739 22.0457 27.3027C21.411 26.7085 20.9783 21.9921 20.9668 15.5681C20.9668 15.4094 21.0707 15.271 21.2177 15.2364L23.6581 14.6421C23.7591 14.6162 23.8629 14.6421 23.9437 14.7114C24.0245 14.7806 24.0677 14.8816 24.0649 14.9912C24.0331 15.9835 23.9812 17.9075 24.0014 19.6181C24.036 22.4277 24.2379 23.045 24.4312 23.2758C24.9101 23.8469 25.8966 23.8931 26.6409 23.8325C27.0649 23.7979 27.3995 23.42 27.3995 22.97V20.795C27.3995 20.5123 27.6187 20.2816 27.887 20.2787L30.4053 20.2614C30.4053 20.2614 30.411 20.2614 30.4168 20.2671C30.4226 20.2729 30.4226 20.2758 30.4197 20.2787C30.3707 21.1354 30.3101 22.6671 30.4485 23.3162C30.662 24.32 32.5659 24.3373 34.5909 24.2017C35.8601 24.1181 36.1427 24.0316 36.2495 23.3075C36.2553 23.2758 36.2581 23.244 36.2639 23.2066C36.2957 23.0046 36.3707 22.5316 33.1255 19.4277C33.0793 19.3816 33.0505 19.3181 33.0505 19.2517V16.3816C33.0505 16.3556 33.0505 16.3412 33.0533 16.3383C33.287 15.3777 35.8024 14.0969 39.6216 12.9979C39.7139 12.9719 39.8091 12.9921 39.887 13.0527C39.9649 13.1133 40.0081 13.2056 40.0081 13.3066V17.1373L36.7774 17.6219C36.6303 17.645 36.512 17.7489 36.4687 17.896H36.4745Z" fill="#637381"/>
<path d="M18.9618 20.5902L18.6589 27.8306C18.6214 28.7652 18.3185 29.6334 17.7906 30.343C17.006 31.3959 15.4944 32.6709 12.7396 32.769C9.67909 32.8786 8.2685 31.3267 7.62523 30.0056C7.36563 29.4777 7.22716 28.8719 7.2185 28.2546L7.14062 22.1969H9.53484C9.60409 22.1969 9.65889 22.2546 9.65889 22.3267V27.069C9.65889 27.4354 9.94444 27.7325 10.2906 27.7325H15.2752C15.4483 27.7325 15.6098 27.6604 15.7281 27.5306C15.8492 27.4007 15.9127 27.2306 15.907 27.0488L15.7512 21.2882C15.7512 21.2277 15.7887 21.1786 15.8435 21.1671L18.8954 20.5354C18.9156 20.5325 18.9272 20.5382 18.9358 20.5469C18.9474 20.5584 18.9531 20.5728 18.9531 20.5873L18.9618 20.5902Z" fill="#637381"/>
<path d="M10.2499 44.2815H12.7133V43.5112H10.2499V41.2325H12.8605V40.4565H9.42773V47.6563H13.0047V46.8835H10.2499V44.2815Z" fill="#637381"/>
<path d="M19.0481 42.3719C18.6183 42.3719 18.3211 42.4988 18.0442 42.7355C17.8567 42.891 17.675 43.1132 17.5307 43.4073H17.5106C17.3144 42.7989 16.8442 42.3719 16.2269 42.3719C15.4683 42.3719 15.0413 42.8305 14.7875 43.3211H14.7644L14.7211 42.4902H14C14.0231 42.9172 14.0375 43.3469 14.0375 43.8865V47.6563H14.8452V44.541C14.8452 44.3796 14.8683 44.2152 14.9087 44.0796C15.0471 43.6093 15.425 43.142 15.9413 43.142C16.5673 43.142 16.8875 43.7335 16.8875 44.5553V47.6563H17.6981V44.4573C17.6981 44.29 17.7269 44.1227 17.7644 43.9875C17.9115 43.5345 18.275 43.142 18.7509 43.142C19.4144 43.142 19.7404 43.7335 19.7404 44.7345V47.6563H20.5481V44.6132C20.5481 42.8162 19.6509 42.3719 19.0423 42.3719H19.0481Z" fill="#637381"/>
<path d="M24.2834 42.3719C23.542 42.3719 22.9968 42.741 22.6651 43.3701H22.6449L22.5988 42.4902H21.8574C21.8805 42.9776 21.8949 43.5142 21.8949 44.1721V49.7711H22.7199V46.9583H22.7401C23.0112 47.4721 23.5362 47.7721 24.1449 47.7721C25.2122 47.7721 26.216 46.8548 26.216 44.991C26.216 43.4221 25.3853 42.369 24.2805 42.369L24.2834 42.3719ZM23.9978 47.0365C23.4093 47.0365 22.9074 46.592 22.7574 45.9345C22.7343 45.8132 22.7228 45.6835 22.7228 45.5508V44.6563C22.7228 44.5325 22.7488 44.3969 22.7747 44.2756C22.9305 43.5691 23.4641 43.1162 24.0295 43.1162C24.9064 43.1162 25.3824 44.0018 25.3824 45.0345C25.3824 46.2201 24.8747 47.0365 23.9978 47.0365Z" fill="#637381"/>
<path d="M28.0867 40.0729H27.2617V47.6563H28.0867V40.0729Z" fill="#637381"/>
<path d="M31.4168 42.3719C30.1562 42.3719 29.1523 43.3815 29.1523 45.1122C29.1523 46.7538 30.1071 47.7746 31.3447 47.7746C32.4408 47.7746 33.612 46.9384 33.612 45.0256C33.612 43.4508 32.7293 42.3748 31.4168 42.3748V42.3719ZM31.3793 47.0682C30.5716 47.0682 29.9975 46.2142 29.9975 45.0805C29.9975 44.0998 30.4216 43.0727 31.3937 43.0727C32.3658 43.0727 32.7668 44.1776 32.7668 45.0518C32.7668 46.2227 32.1725 47.0652 31.3793 47.0652V47.0682Z" fill="#637381"/>
<path d="M36.4941 45.5246C36.3845 45.8998 36.2835 46.2949 36.2028 46.6008H36.1797C36.1047 46.2919 35.9951 45.8884 35.8854 45.5478L34.8902 42.493H33.9902L35.672 47.2583C35.7152 47.3711 35.7297 47.4459 35.7297 47.5008C35.7297 47.5583 35.7066 47.6276 35.6662 47.7285C35.473 48.2073 35.196 48.5711 34.9739 48.7756C34.7258 49.0122 34.4547 49.1593 34.247 49.2345L34.4518 50.0191C34.6537 49.9785 35.0576 49.8171 35.4672 49.4162C36.0326 48.8563 36.4364 47.9538 37.0278 46.1766L38.2739 42.4959H37.3941L36.4912 45.5276L36.4941 45.5246Z" fill="#637381"/>
<path d="M40.7487 42.3719C39.4189 42.3719 38.6055 43.5949 38.6055 45.1613C38.6055 46.7276 39.4478 47.7691 40.8469 47.7691C41.5709 47.7691 42.0785 47.59 42.367 47.44L42.2228 46.7736C41.917 46.9182 41.5535 47.039 40.9593 47.039C40.1285 47.039 39.4161 46.5142 39.3987 45.2449H42.5949C42.6122 45.1439 42.6237 45.0028 42.6237 44.8038C42.6237 43.8518 42.2343 42.3748 40.7487 42.3748V42.3719ZM39.4103 44.5672C39.4767 43.9122 39.8372 43.0469 40.6824 43.0469C41.6113 43.0469 41.8334 43.9756 41.8247 44.5672H39.4074H39.4103Z" fill="#637381"/>
<path d="M45.4716 42.3719C44.1419 42.3719 43.3281 43.5949 43.3281 45.1613C43.3281 46.7276 44.1707 47.7691 45.5697 47.7691C46.2939 47.7691 46.8014 47.59 47.09 47.44L46.9454 46.7736C46.64 46.9182 46.2766 47.039 45.6821 47.039C44.8514 47.039 44.139 46.5142 44.1216 45.2449H47.3177C47.335 45.1439 47.3464 45.0028 47.3464 44.8038C47.3464 43.8518 46.9573 42.3748 45.4716 42.3748V42.3719ZM44.1331 44.5672C44.1994 43.9122 44.5602 43.0469 45.4053 43.0469C46.334 43.0469 46.5563 43.9756 46.5474 44.5672H44.1301H44.1331Z" fill="#637381"/>
<path d="M52.7602 42.3719C52.0186 42.3719 51.4736 42.741 51.1419 43.3701H51.1216L51.0755 42.4902H50.334C50.3572 42.9776 50.3716 43.5142 50.3716 44.1721V49.7711H51.1964V46.9583H51.2167C51.4879 47.4721 52.0127 47.7721 52.6216 47.7721C53.6889 47.7721 54.6929 46.8548 54.6929 44.991C54.6929 43.4221 53.8617 42.369 52.7572 42.369L52.7602 42.3719ZM52.4745 47.0365C51.886 47.0365 51.384 46.592 51.234 45.9345C51.2112 45.8132 51.1993 45.6835 51.1993 45.5508V44.6563C51.1993 44.5325 51.2255 44.3969 51.2513 44.2756C51.4072 43.5691 51.9409 43.1162 52.5062 43.1162C53.383 43.1162 53.8592 44.0018 53.8592 45.0345C53.8592 46.2201 53.3513 47.0365 52.4745 47.0365Z" fill="#637381"/>
<path d="M57.563 42.3719C56.2333 42.3719 55.4199 43.5949 55.4199 45.1613C55.4199 46.7276 56.262 47.7691 57.661 47.7691C58.3853 47.7691 58.8932 47.59 59.1813 47.44L59.0372 46.7736C58.7313 46.9182 58.3679 47.039 57.7739 47.039C56.9432 47.039 56.2303 46.5142 56.213 45.2449H59.4095C59.4268 45.1439 59.4382 45.0028 59.4382 44.8038C59.4382 43.8518 59.0487 42.3748 57.563 42.3748V42.3719ZM56.2249 44.5672C56.2912 43.9122 56.6516 43.0469 57.4967 43.0469C58.4258 43.0469 58.6477 43.9756 58.6392 44.5672H56.2219H56.2249Z" fill="#637381"/>
<path d="M61.2192 43.5028H61.1905L61.1588 42.4902H60.4316C60.4549 42.9691 60.4692 43.4884 60.4692 44.0998V47.6563H61.2945V44.8959C61.2945 44.7429 61.3059 44.59 61.3291 44.4573C61.4415 43.7538 61.8539 43.2548 62.4395 43.2548C62.5519 43.2548 62.6356 43.2603 62.7222 43.2805V42.3979C62.647 42.3777 62.5807 42.3719 62.4915 42.3719C61.9376 42.3719 61.4356 42.8103 61.2222 43.5028H61.2192Z" fill="#637381"/>
<path d="M64.7387 42.2103C64.7387 41.4142 64.9234 40.7103 65.6214 40.7103C65.8635 40.7103 66.0283 40.7651 66.1521 40.8286L66.262 40.1075C66.1031 40.0267 65.8551 39.9546 65.5551 39.9546C65.1744 39.9546 64.759 40.0901 64.4472 40.4305C64.0635 40.8517 63.9165 41.5123 63.9165 42.2392V42.4873H63.2793V43.1998H63.9165V47.6538H64.7417V43.1998H65.8378V42.4873H64.7358V42.2075L64.7387 42.2103Z" fill="#637381"/>
<path d="M68.3952 42.3719C67.1348 42.3719 66.1309 43.3815 66.1309 45.1122C66.1309 46.7538 67.0858 47.7746 68.3234 47.7746C69.4194 47.7746 70.5907 46.9384 70.5907 45.0256C70.5907 43.4508 69.708 42.3748 68.3952 42.3748V42.3719ZM68.358 47.0682C67.5502 47.0682 66.9763 46.2142 66.9763 45.0805C66.9763 44.0998 67.4002 43.0727 68.3724 43.0727C69.3447 43.0727 69.7452 44.1776 69.7452 45.0518C69.7452 46.2227 69.1511 47.0652 68.358 47.0652V47.0682Z" fill="#637381"/>
<path d="M72.3872 43.5028H72.3585L72.3268 42.4902H71.5996C71.6228 42.9691 71.6372 43.4884 71.6372 44.0998V47.6563H72.462V44.8959C72.462 44.7429 72.4738 44.59 72.4967 44.4573C72.6095 43.7538 73.0219 43.2548 73.6075 43.2548C73.7199 43.2548 73.8035 43.2603 73.8902 43.2805V42.3979C73.815 42.3777 73.7486 42.3719 73.6595 42.3719C73.1055 42.3719 72.6036 42.8103 72.3902 43.5028H72.3872Z" fill="#637381"/>
<path d="M79.7668 42.3719C79.3371 42.3719 79.04 42.4988 78.7628 42.7355C78.5757 42.891 78.394 43.1132 78.2495 43.4073H78.2292C78.0331 42.7989 77.5628 42.3719 76.9455 42.3719C76.1871 42.3719 75.7603 42.8305 75.5064 43.3211H75.4831L75.44 42.4902H74.7188C74.742 42.9172 74.7564 43.3469 74.7564 43.8865V47.6563H75.5638V44.541C75.5638 44.3796 75.5871 44.2152 75.6276 44.0796C75.7658 43.6093 76.144 43.142 76.6603 43.142C77.2861 43.142 77.6064 43.7335 77.6064 44.5553V47.6563H78.4138V44.4573C78.4138 44.29 78.443 44.1227 78.4831 43.9875C78.6302 43.5345 78.994 43.142 79.4697 43.142C80.1331 43.142 80.4593 43.7335 80.4593 44.7345V47.6563H81.2668V44.6132C81.2668 42.8162 80.3697 42.3719 79.7613 42.3719H79.7668Z" fill="#637381"/>
<path d="M85.8241 44.4865C85.8241 43.4508 85.4835 42.3719 84.0904 42.3719C83.5162 42.3719 82.9623 42.5479 82.5875 42.8246L82.7751 43.4508C83.095 43.2083 83.5395 43.0672 83.9633 43.0672C84.8979 43.0613 85.0019 43.84 85.0019 44.2583V44.3682C83.2424 44.3538 82.2617 45.04 82.2617 46.292C82.2617 47.0335 82.7316 47.7746 83.6548 47.7746C84.3068 47.7746 84.7999 47.4083 85.0479 47.0048H85.0741L85.1459 47.6563H85.8934C85.8414 47.3018 85.8241 46.8603 85.8241 46.4191V44.4865ZM85.0162 45.9172C85.0162 46.0063 85.0048 46.1132 84.9761 46.2142C84.8434 46.6498 84.4652 47.0796 83.8652 47.0796C83.4499 47.0796 83.0924 46.7969 83.0924 46.1796C83.0924 45.1815 84.1192 44.9969 85.0162 45.0201V45.9201V45.9172Z" fill="#637381"/>
<path d="M89.4305 42.3719C88.678 42.3719 88.1469 42.8538 87.925 43.3384H87.9018L87.8557 42.4873H87.123C87.1459 42.9142 87.1607 43.3439 87.1607 43.8835V47.6538H87.9854V44.541C87.9854 44.3855 88.0087 44.2211 88.0433 44.1053C88.1904 43.5805 88.6171 43.142 89.1597 43.142C89.9354 43.142 90.2122 43.84 90.2122 44.6766V47.6563H91.0374V44.5756C91.0374 42.8018 90.0567 42.3748 89.4305 42.3748V42.3719Z" fill="#637381"/>
<path d="M94.5066 43.1221C94.9621 43.1221 95.2739 43.2489 95.4759 43.3701L95.6605 42.6489C95.4383 42.5133 94.9967 42.3748 94.5096 42.3748C93.018 42.3748 92.0605 43.5375 92.0605 45.1296C92.0605 46.7221 92.9605 47.7692 94.3334 47.7692C94.9448 47.7692 95.4239 47.59 95.6403 47.4692L95.4987 46.7652C95.2651 46.8806 94.9477 47.0132 94.4834 47.0132C93.5749 47.0132 92.8967 46.2776 92.8967 45.0806C92.8967 44.0073 93.4651 43.1246 94.5036 43.1246L94.5066 43.1221Z" fill="#637381"/>
<path d="M98.3697 42.3719C97.0399 42.3719 96.2266 43.5949 96.2266 45.1613C96.2266 46.7276 97.0687 47.7691 98.4677 47.7691C99.1919 47.7691 99.6994 47.59 99.988 47.44L99.8439 46.7736C99.538 46.9182 99.1746 47.039 98.5801 47.039C97.7494 47.039 97.037 46.5142 97.0197 45.2449H100.216C100.233 45.1439 100.245 45.0028 100.245 44.8038C100.245 43.8518 99.8553 42.3748 98.3697 42.3748V42.3719ZM97.0311 44.5672C97.0974 43.9122 97.4582 43.0469 98.3033 43.0469C99.2321 43.0469 99.4543 43.9756 99.4454 44.5672H97.0285H97.0311Z" fill="#637381"/>
<path d="M105.088 42.3719C103.759 42.3719 102.945 43.5949 102.945 45.1613C102.945 46.7276 103.787 47.7691 105.186 47.7691C105.911 47.7691 106.418 47.59 106.707 47.44L106.563 46.7736C106.257 46.9182 105.893 47.039 105.299 47.039C104.468 47.039 103.756 46.5142 103.738 45.2449H106.934C106.952 45.1439 106.963 45.0028 106.963 44.8038C106.963 43.8518 106.574 42.3748 105.088 42.3748V42.3719ZM103.75 44.5672C103.816 43.9122 104.177 43.0469 105.022 43.0469C105.951 43.0469 106.173 43.9756 106.164 44.5672H103.747H103.75Z" fill="#637381"/>
<path d="M109.989 45.3865C109.842 45.8623 109.712 46.292 109.608 46.7192H109.582C109.481 46.289 109.363 45.8652 109.21 45.3865L108.316 42.4902H107.428L109.164 47.6563H109.954L111.749 42.4902H110.883L109.992 45.3865H109.989Z" fill="#637381"/>
<path d="M115.697 44.4865C115.697 43.4508 115.357 42.3719 113.963 42.3719C113.39 42.3719 112.836 42.5479 112.461 42.8246L112.648 43.4508C112.968 43.2083 113.413 43.0672 113.837 43.0672C114.771 43.0613 114.875 43.84 114.875 44.2583V44.3682C113.115 44.3538 112.135 45.04 112.135 46.292C112.135 47.0335 112.605 47.7746 113.528 47.7746C114.18 47.7746 114.673 47.4083 114.921 47.0048H114.947L115.019 47.6563H115.766C115.714 47.3018 115.697 46.8603 115.697 46.4191V44.4865ZM114.89 45.9172C114.89 46.0063 114.878 46.1132 114.849 46.2142C114.716 46.6498 114.339 47.0796 113.739 47.0796C113.323 47.0796 112.965 46.7969 112.965 46.1796C112.965 45.1815 113.993 44.9969 114.89 45.0201V45.9201V45.9172Z" fill="#637381"/>
<path d="M117.86 40.0729H117.035V47.6563H117.86V40.0729Z" fill="#637381"/>
<path d="M123.07 42.4902H122.245V45.6548C122.245 45.8335 122.213 46.0008 122.17 46.1365C122.017 46.5573 121.628 46.9989 121.074 46.9989C120.327 46.9989 120.056 46.3296 120.056 45.343V42.4902H119.23V45.5103C119.23 47.3221 120.087 47.7747 120.8 47.7747C121.616 47.7747 122.098 47.2296 122.309 46.8113H122.331L122.375 47.6563H123.108C123.084 47.2469 123.07 46.7855 123.07 46.243V42.4902Z" fill="#637381"/>
<path d="M127.658 44.4865C127.658 43.4508 127.318 42.3719 125.924 42.3719C125.35 42.3719 124.796 42.5479 124.421 42.8246L124.609 43.4508C124.929 43.2083 125.373 43.0672 125.797 43.0672C126.732 43.0613 126.836 43.84 126.836 44.2583V44.3682C125.076 44.3538 124.096 45.04 124.096 46.292C124.096 47.0335 124.566 47.7746 125.489 47.7746C126.141 47.7746 126.634 47.4083 126.882 47.0048H126.908L126.98 47.6563H127.727C127.675 47.3018 127.658 46.8603 127.658 46.4191V44.4865ZM126.85 45.9172C126.85 46.0063 126.839 46.1132 126.81 46.2142C126.677 46.6498 126.299 47.0796 125.699 47.0796C125.284 47.0796 124.926 46.7969 124.926 46.1796C124.926 45.1815 125.953 44.9969 126.85 45.0201V45.9201V45.9172Z" fill="#637381"/>
<path d="M129.951 41.0046L129.14 41.2469V42.493H128.434V43.2053H129.14V46.0266C129.14 46.6325 129.233 47.0884 129.463 47.3736C129.66 47.6305 129.977 47.7721 130.358 47.7721C130.681 47.7721 130.938 47.7142 131.099 47.6419L131.062 46.9295C130.952 46.9671 130.796 46.9988 130.58 46.9988C130.115 46.9988 129.954 46.6354 129.954 45.9919V43.2083H131.145V42.4959H129.954V41.0074L129.951 41.0046Z" fill="#637381"/>
<path d="M132.901 42.4902H132.076V47.6563H132.901V42.4902Z" fill="#637381"/>
<path d="M132.489 40.445C132.186 40.445 131.973 40.7075 131.973 41.0306C131.973 41.3508 132.175 41.6133 132.472 41.6133C132.8 41.6133 132.999 41.3479 132.999 41.0306C132.999 40.7017 132.797 40.445 132.486 40.445H132.489Z" fill="#637381"/>
<path d="M136.214 42.3719C134.953 42.3719 133.949 43.3815 133.949 45.1122C133.949 46.7538 134.904 47.7746 136.142 47.7746C137.238 47.7746 138.409 46.9384 138.409 45.0256C138.409 43.4508 137.526 42.3748 136.214 42.3748V42.3719ZM136.176 47.0682C135.369 47.0682 134.795 46.2142 134.795 45.0805C134.795 44.0998 135.219 43.0727 136.191 43.0727C137.163 43.0727 137.564 44.1776 137.564 45.0518C137.564 46.2227 136.969 47.0652 136.176 47.0652V47.0682Z" fill="#637381"/>
<path d="M141.726 42.3719C140.973 42.3719 140.442 42.8538 140.22 43.3384H140.197L140.151 42.4873H139.418C139.441 42.9142 139.456 43.3439 139.456 43.8835V47.6538H140.28V44.541C140.28 44.3855 140.304 44.2211 140.338 44.1053C140.485 43.5805 140.912 43.142 141.455 43.142C142.23 43.142 142.508 43.84 142.508 44.6766V47.6563H143.332V44.5756C143.332 42.8018 142.352 42.3748 141.726 42.3748V42.3719Z" fill="#637381"/>
<path d="M148.155 44.6593C147.558 44.3969 147.289 44.2063 147.289 43.7796C147.289 43.39 147.555 43.0701 148.045 43.0701C148.472 43.0701 148.804 43.2489 148.98 43.3727L149.185 42.689C148.931 42.5132 148.533 42.3719 148.068 42.3719C147.088 42.3719 146.49 43.0553 146.49 43.8865C146.49 44.5063 146.877 45.0142 147.702 45.3518C148.308 45.6083 148.55 45.8449 148.55 46.2979C148.55 46.7508 148.27 47.0682 147.664 47.0682C147.252 47.0682 146.816 46.8776 146.565 46.6989L146.363 47.4083C146.684 47.6221 147.145 47.7691 147.644 47.7691C148.72 47.7691 149.349 47.1286 149.349 46.2113C149.349 45.441 148.939 44.991 148.155 44.6593Z" fill="#637381"/>
<path d="M152.318 45.5246C152.209 45.8998 152.108 46.2949 152.027 46.6008H152.004C151.929 46.2919 151.819 45.8884 151.71 45.5478L150.714 42.493H149.814L151.496 47.2583C151.54 47.3711 151.554 47.4459 151.554 47.5008C151.554 47.5583 151.531 47.6276 151.491 47.7285C151.297 48.2073 151.02 48.5711 150.798 48.7756C150.55 49.0122 150.279 49.1593 150.071 49.2345L150.276 50.0191C150.478 49.9785 150.882 49.8171 151.292 49.4162C151.857 48.8563 152.261 47.9538 152.852 46.1766L154.098 42.4959H153.218L152.315 45.5276L152.318 45.5246Z" fill="#637381"/>
<path d="M156.266 44.6593C155.669 44.3969 155.4 44.2063 155.4 43.7796C155.4 43.39 155.666 43.0701 156.156 43.0701C156.583 43.0701 156.915 43.2489 157.091 43.3727L157.295 42.689C157.042 42.5132 156.644 42.3719 156.179 42.3719C155.198 42.3719 154.601 43.0553 154.601 43.8865C154.601 44.5063 154.988 45.0142 155.813 45.3518C156.419 45.6083 156.661 45.8449 156.661 46.2979C156.661 46.7508 156.381 47.0682 155.776 47.0682C155.363 47.0682 154.928 46.8776 154.677 46.6989L154.475 47.4083C154.794 47.6221 155.256 47.7691 155.755 47.7691C156.831 47.7691 157.46 47.1286 157.46 46.2113C157.46 45.441 157.05 44.991 156.266 44.6593Z" fill="#637381"/>
<path d="M159.523 41.0046L158.712 41.2469V42.493H158.006V43.2053H158.712V46.0266C158.712 46.6325 158.805 47.0884 159.036 47.3736C159.232 47.6305 159.549 47.7721 159.93 47.7721C160.253 47.7721 160.51 47.7142 160.671 47.6419L160.634 46.9295C160.524 46.9671 160.368 46.9988 160.155 46.9988C159.691 46.9988 159.529 46.6354 159.529 45.9919V43.2083H160.72V42.4959H159.529V41.0074L159.523 41.0046Z" fill="#637381"/>
<path d="M163.403 42.3719C162.073 42.3719 161.26 43.5949 161.26 45.1613C161.26 46.7276 162.102 47.7691 163.501 47.7691C164.225 47.7691 164.733 47.59 165.021 47.44L164.877 46.7736C164.571 46.9182 164.208 47.039 163.613 47.039C162.783 47.039 162.07 46.5142 162.053 45.2449H165.249C165.266 45.1439 165.278 45.0028 165.278 44.8038C165.278 43.8518 164.888 42.3748 163.403 42.3748V42.3719ZM162.064 44.5672C162.131 43.9122 162.491 43.0469 163.337 43.0469C164.265 43.0469 164.488 43.9756 164.479 44.5672H162.062H162.064Z" fill="#637381"/>
<path d="M171.321 42.3719C170.892 42.3719 170.595 42.4988 170.318 42.7355C170.13 42.891 169.948 43.1132 169.804 43.4073H169.784C169.588 42.7989 169.118 42.3719 168.5 42.3719C167.742 42.3719 167.315 42.8305 167.061 43.3211H167.038L166.995 42.4902H166.273C166.296 42.9172 166.311 43.3469 166.311 43.8865V47.6563H167.119V44.541C167.119 44.3796 167.142 44.2152 167.182 44.0796C167.32 43.6093 167.698 43.142 168.215 43.142C168.841 43.142 169.161 43.7335 169.161 44.5553V47.6563H169.969V44.4573C169.969 44.29 169.997 44.1227 170.038 43.9875C170.185 43.5345 170.548 43.142 171.024 43.142C171.688 43.142 172.014 43.7335 172.014 44.7345V47.6563H172.821V44.6132C172.821 42.8162 171.924 42.3719 171.316 42.3719H171.321Z" fill="#637381"/>
<path d="M175.317 37.5921H7.14366C6.90425 37.5921 6.71094 37.3989 6.71094 37.1594C6.71094 36.92 6.90425 36.7267 7.14366 36.7267H175.317C175.556 36.7267 175.749 36.92 175.749 37.1594C175.749 37.3989 175.556 37.5921 175.317 37.5921Z" fill="#00CCFF"/>
<path d="M224.182 24.8017L207.448 41.293C206.661 42.069 205.619 42.5248 204.517 42.5825C203.257 42.6459 202.013 42.17 201.116 41.2786C198.725 38.8988 194.462 34.6815 192.794 33.1671C191.45 31.944 190.1 31.4363 189.119 31.2257L191.698 28.8776C194.164 26.6248 197.972 26.6882 200.366 29.019L203.655 32.218C203.958 32.5152 204.439 32.5209 204.748 32.2324L214.391 23.2469C216.601 21.1844 219.985 21.1324 222.258 23.1228L224.179 24.8017H224.182Z" fill="white"/>
<path d="M203.969 27.7411C206.649 27.7411 208.821 25.5689 208.821 22.8892C208.821 20.2095 206.649 18.0373 203.969 18.0373C201.289 18.0373 199.117 20.2095 199.117 22.8892C199.117 25.5689 201.289 27.7411 203.969 27.7411Z" fill="white"/>
</g>
</svg>
