<svg width="20" height="21" viewBox="0 0 20 21" fill="none" xmlns="http://www.w3.org/2000/svg">
<path fill-rule="evenodd" clip-rule="evenodd" d="M8.28567 2.96289H11.713C13.2445 2.96288 14.4575 2.96287 15.4069 3.0905C16.3839 3.22186 17.1747 3.49862 17.7983 4.12226C18.4219 4.7459 18.6987 5.53669 18.8301 6.51371C18.9577 7.46305 18.9577 8.67608 18.9577 10.2075V10.3016C18.9577 11.833 18.9577 13.0461 18.8301 13.9954C18.6987 14.9724 18.4219 15.7632 17.7983 16.3869C17.1747 17.0105 16.3839 17.2873 15.4069 17.4186C14.4575 17.5462 13.2445 17.5462 11.713 17.5462H8.28567C6.75421 17.5462 5.54118 17.5462 4.59183 17.4186C3.61481 17.2873 2.82402 17.0105 2.20039 16.3869C1.57675 15.7632 1.29999 14.9724 1.16863 13.9954C1.04099 13.0461 1.041 11.833 1.04102 10.3016V10.2075C1.041 8.67608 1.04099 7.46305 1.16863 6.51371C1.29999 5.53669 1.57675 4.7459 2.20039 4.12226C2.82402 3.49862 3.61481 3.22186 4.59183 3.0905C5.54118 2.96287 6.7542 2.96288 8.28567 2.96289ZM4.75839 4.32936C3.91998 4.44208 3.43694 4.65347 3.08427 5.00614C2.73159 5.35882 2.5202 5.84186 2.40748 6.68026C2.29234 7.53665 2.29102 8.66554 2.29102 10.2546C2.29102 11.8436 2.29234 12.9725 2.40748 13.8289C2.5202 14.6673 2.73159 15.1503 3.08427 15.503C3.43694 15.8556 3.91998 16.067 4.75839 16.1798C5.61478 16.2949 6.74367 16.2962 8.33268 16.2962H11.666C13.255 16.2962 14.3839 16.2949 15.2403 16.1798C16.0787 16.067 16.5618 15.8556 16.9144 15.503C17.2671 15.1503 17.4785 14.6673 17.5912 13.8289C17.7064 12.9725 17.7077 11.8436 17.7077 10.2546C17.7077 8.66554 17.7064 7.53665 17.5912 6.68026C17.4785 5.84186 17.2671 5.35882 16.9144 5.00614C16.5618 4.65347 16.0787 4.44208 15.2403 4.32936C14.3839 4.21422 13.255 4.21289 11.666 4.21289H8.33268C6.74367 4.21289 5.61478 4.21422 4.75839 4.32936ZM4.51921 6.52111C4.74019 6.25594 5.13429 6.22011 5.39946 6.44109L7.19854 7.94032C7.97601 8.58821 8.51579 9.03657 8.9715 9.32966C9.41263 9.61338 9.71179 9.70862 9.99935 9.70862C10.2869 9.70862 10.5861 9.61338 11.0272 9.32966C11.4829 9.03657 12.0227 8.58821 12.8002 7.94032L14.5992 6.44109C14.8644 6.22011 15.2585 6.25594 15.4795 6.52111C15.7005 6.78628 15.6646 7.18039 15.3995 7.40136L13.5691 8.9267C12.8304 9.54225 12.2318 10.0412 11.7034 10.381C11.153 10.735 10.6169 10.9586 9.99935 10.9586C9.38179 10.9586 8.84574 10.735 8.29533 10.381C7.76695 10.0412 7.16828 9.54225 6.42965 8.92671L4.59923 7.40136C4.33406 7.18038 4.29823 6.78628 4.51921 6.52111Z" fill="#212B36"/>
</svg>
