<svg width="24" height="25" viewBox="0 0 24 25" fill="none" xmlns="http://www.w3.org/2000/svg">
<path fill-rule="evenodd" clip-rule="evenodd" d="M12 6.24998C10.2051 6.24998 8.75 7.70505 8.75 9.49998C8.75 11.2949 10.2051 12.75 12 12.75C13.7949 12.75 15.25 11.2949 15.25 9.49998C15.25 7.70505 13.7949 6.24998 12 6.24998ZM10.25 9.49998C10.25 8.53348 11.0335 7.74998 12 7.74998C12.9665 7.74998 13.75 8.53348 13.75 9.49998C13.75 10.4665 12.9665 11.25 12 11.25C11.0335 11.25 10.25 10.4665 10.25 9.49998Z" fill="#161C24"/>
<path fill-rule="evenodd" clip-rule="evenodd" d="M12.0023 2.00831C12.6704 2.01014 13.3383 2.10317 13.9871 2.28739L13.997 2.29023L14.0069 2.29333C15.8439 2.8703 17.407 4.09822 18.4025 5.74638C19.398 7.39455 19.7574 9.34952 19.4131 11.244C19.0381 13.3074 17.9352 15.115 16.6552 16.6325C15.4964 18.0879 14.4969 19.6633 13.6738 21.3317L13.6518 21.3763L13.448 21.6803L13.4472 21.6815C13.2882 21.9192 13.0734 22.1144 12.8215 22.2498C12.5715 22.3843 12.2925 22.4559 12.0087 22.4586L12.0032 21.8629L12.003 21.891L12.0069 22.4586L12.0025 22.4586L12.001 22.2386L11.9997 22.4586L11.9974 22.4586L11.9997 22.0562L11.9995 22.0226L11.9964 22.4586C11.7113 22.4566 11.431 22.3849 11.1799 22.2498C10.9279 22.1143 10.7129 21.9189 10.5539 21.681L10.3496 21.3762L10.3276 21.3317C9.50451 19.6632 8.505 18.0878 7.34618 16.6325C6.06623 15.115 4.96325 13.3074 4.58828 11.244C4.244 9.3495 4.60337 7.39454 5.59887 5.74637C6.59436 4.0982 8.15745 2.87028 9.99446 2.29332L10.0044 2.29021L10.0143 2.28737C10.6619 2.10351 11.3284 2.01049 11.9951 2.0083L11.9993 2.0083L12.0023 2.00831ZM12.1109 20.9288C12.077 20.9471 12.0394 20.9572 12.001 20.9585C11.9624 20.9573 11.9245 20.9471 11.8905 20.9288C11.8544 20.9094 11.8237 20.8815 11.801 20.8474L11.6506 20.6232C10.7827 18.872 9.73085 17.218 8.51273 15.6894L8.50608 15.6811L8.49919 15.6729C7.30872 14.2633 6.37541 12.6888 6.0641 10.9758C5.78519 9.44097 6.07634 7.85715 6.88284 6.52188C7.68754 5.18959 8.95005 4.19624 10.434 3.72752C10.9454 3.58329 11.4716 3.51022 11.998 3.5083C12.5262 3.50973 13.0542 3.5828 13.5674 3.72754C15.0514 4.19626 16.3139 5.18961 17.1186 6.5219C17.9251 7.85717 18.2162 9.44098 17.9373 10.9758C17.626 12.6888 16.6927 14.2633 15.5022 15.673L15.4953 15.6811L15.4887 15.6895C14.2706 17.2181 13.2187 18.872 12.3508 20.6232L12.2013 20.8462L12.2004 20.8475C12.1777 20.8815 12.147 20.9094 12.1109 20.9288Z" fill="#161C24"/>
</svg>
